<?xml version="1.0" encoding="UTF-8" standalone="no"?>
<svg width="256px" height="256px" viewBox="0 0 256 256" version="1.1" xmlns="http://www.w3.org/2000/svg" xmlns:xlink="http://www.w3.org/1999/xlink" preserveAspectRatio="xMidYMid">
    
	<g>
		<path d="M255.4766,190.5682 L213.3816,14.5302 C210.9506,4.3622 200.7376,-1.9078 190.5706,0.5232 L154.3116,9.1932 C163.5536,10.6512 181.8636,14.6552 202.0306,25.2352 L186.2426,68.9922 C186.2426,68.9922 173.1016,54.3152 137.8676,52.5302 C104.3736,50.8342 85.7426,87.0692 151.0696,108.4322 C201.0826,124.7872 217.0816,156.3132 216.2526,185.4682 C215.8206,200.6282 210.5166,212.9572 204.3706,222.2522 L241.4706,213.3832 C251.6376,210.9522 257.9076,200.7372 255.4766,190.5682 M113.6186,145.8842 C79.6096,133.0362 51.0426,110.0912 49.1456,80.2262 C47.9366,61.1762 52.7346,44.5312 65.1296,30.5182 L14.5306,42.6182 C4.3636,45.0492 -1.9084,55.2622 0.5236,65.4302 L42.6186,241.4702 C45.0496,251.6362 55.2626,257.9082 65.4296,255.4762 L87.0936,250.2962 C78.6846,247.5092 64.1476,242.2022 50.2126,234.7712 L70.4106,188.9522 C70.4106,188.9522 94.1816,210.1202 128.3146,210.1202 C162.4476,210.1202 177.6166,170.0612 113.6186,145.8842" fill="#FFFFFF"></path>
		
	</g>
</svg>
